<?xml version="1.0" encoding="UTF-8"?>
<svg version="1.1" xmlns="http://www.w3.org/2000/svg" width="512" height="512">
<defs>
  <filter id="glow" height="200%" width="200%" x="-50%" y="-50%">
    <feDropShadow dx="0" dy="0" stdDeviation="6" flood-color="red" flood-opacity="1"/>
  </filter>
</defs>

<path d="M0 0 C3.4963871 3.4963871 3.04618925 8.44315453 3.09765625 13.18359375 C3.09112168 14.60159587 3.07936452 16.01958311 3.0625 17.4375 C3.05798828 18.16904297 3.05347656 18.90058594 3.04882812 19.65429688 C3.03718148 21.43623419 3.01925191 23.21812863 3 25 C4.485 25.495 4.485 25.495 6 26 C7.15570704 29.46712111 7.32835293 32.5414956 7.5625 36.1875 C7.64628906 37.45980469 7.73007813 38.73210937 7.81640625 40.04296875 C7.87699219 41.01878906 7.93757813 41.99460938 8 43 C9.98 43 11.96 43 14 43 C13.98839844 42.443125 13.97679688 41.88625 13.96484375 41.3125 C13.9032535 36.10372458 14.17282174 31.14688693 15 26 C17.04698414 23.95301586 21.30411241 24.29954307 24 24 C24.99 19.545 24.99 19.545 26 15 C29.70152678 14.07461831 30.63458162 13.91825838 34 15 C33.27143642 29.21938832 32.3268678 43.42192887 31.32543945 57.62451172 C31.14940572 60.13540326 30.97592416 62.64647496 30.80493164 65.15771484 C30.55396559 68.84253766 30.29538691 72.5267587 30.03515625 76.2109375 C29.92410301 77.87073135 29.92410301 77.87073135 29.81080627 79.5640564 C29.43119855 84.82065026 28.8883914 89.95911817 27.97314453 95.15112305 C27.01926761 100.57290375 26.57944284 105.87387937 26.39453125 111.37109375 C26.35761673 112.3407457 26.32070221 113.31039764 26.28266907 114.30943298 C25.86603227 126.26047266 25.74186355 138.21605842 25.70483398 150.17358398 C25.69320593 152.78236264 25.6725884 155.39111559 25.64331055 157.99975586 C25.09025321 177.91568294 25.09025321 177.91568294 30 197 C30.28254639 197.72388916 30.56509277 198.44777832 30.85620117 199.19360352 C37.3008354 214.6763709 48.45954708 227.46403334 64 234 C71.07753156 236.35917719 77.90960483 235.33739641 84.62109375 232.3125 C96.40167745 225.81286761 102.28857897 214.25065969 106.00390625 201.7578125 C110.35874772 185.32895958 110.12946871 168.01700253 110.60766602 151.13696289 C110.82816127 143.72396083 111.21572261 136.3512733 111.81103516 128.95849609 C111.96805287 126.50017481 111.99514614 124.14399713 111.875 121.6875 C111.6130707 93.45152132 126.97279398 65.68195549 146.0625 45.828125 C151.77732569 40.15233501 158.3572427 35.3657251 165.09765625 30.98828125 C167.89367262 29.07284069 170.19344874 27.03967072 172.625 24.6875 C180.53378805 17.47724263 189.48283836 12.98170422 199.37109375 9.0625 C202.17489743 7.97350468 202.17489743 7.97350468 205.4375 6.25 C211.75066426 3.17040768 219.21789758 2.98943824 225.953125 4.7890625 C233.17612855 7.31904503 233.17612855 7.31904503 235.9140625 9.58203125 C238.74802174 11.50848669 241.1045023 11.56145179 244.5 11.875 C257.37119612 13.51898455 268.42858282 18.76329511 276.5 29.125 C281.9312827 37.36687654 285.34524088 46.87513053 289 56 C289.74056641 57.83111328 289.74056641 57.83111328 290.49609375 59.69921875 C293.14511139 66.56466584 293.14511139 66.56466584 292 70 C291.27296875 68.64068359 291.27296875 68.64068359 290.53125 67.25390625 C286.40511864 59.70109336 282.11868233 53.15122852 276 47 C277.71762004 50.72151009 279.65485431 54.00895755 282 57.375 C285.59021157 62.67100861 288 67.46522284 288 74 C291.26460973 72.19587357 292.88929795 71.16605307 295 68 C304.28631376 71.11754819 311.56673858 79.85010787 316.875 87.8125 C318.61487066 92.74213353 318.1438895 97.52511639 315.94921875 102.2734375 C315.47935547 103.12808594 315.47935547 103.12808594 315 104 C315.639375 104.7425 316.27875 105.485 316.9375 106.25 C319 109 319 109 319.5 111.0625 C320.21299967 113.82537373 321.95384003 115.08172503 324 117 C325.35439668 119.70879335 325.06501451 122.00933268 325 125 C325.886875 125.20625 326.77375 125.4125 327.6875 125.625 C331.62405641 127.25904228 333.85883024 129.38779757 336 133 C336.68679942 135.32748694 337.35761043 137.65986656 338 140 C338.99 140.33 339.98 140.66 341 141 C342.32421875 143.15234375 342.32421875 143.15234375 343.6875 145.9375 C345.80098872 150.00714578 348.03324644 153.44319753 351 156.9375 C354.66665919 161.32637994 357.00259507 165.81116421 359.421875 170.96875 C361.6069906 175.16590274 364.36530382 178.80076828 367.265625 182.52734375 C369 185 369 185 369.984375 187.56640625 C371.18798455 190.45043991 372.74349133 191.86027921 375 194 C376.31103643 195.6564592 377.58218304 197.34523654 378.8125 199.0625 C379.43769531 199.91972656 380.06289063 200.77695312 380.70703125 201.66015625 C381.13371094 202.43230469 381.56039063 203.20445312 382 204 C381.67 204.99 381.34 205.98 381 207 C380.09636719 207.13277344 379.19273437 207.26554688 378.26171875 207.40234375 C376.49248047 207.66724609 376.49248047 207.66724609 374.6875 207.9375 C373.51574219 208.11152344 372.34398437 208.28554688 371.13671875 208.46484375 C367.98358597 208.92093031 367.98358597 208.92093031 365 210 C369.69023454 209.43393721 374.34500026 208.81462495 379 208 C375.74525299 211.47921232 373.85742425 212.91861801 368.96875 213.1328125 C367.8240625 213.13023437 366.679375 213.12765625 365.5 213.125 C364.3553125 213.12757813 363.210625 213.13015625 362.03125 213.1328125 C359 213 359 213 356 212 C356.49371094 212.75925781 356.98742187 213.51851562 357.49609375 214.30078125 C358.13675781 215.29464844 358.77742188 216.28851563 359.4375 217.3125 C360.07558594 218.29863281 360.71367187 219.28476562 361.37109375 220.30078125 C363 223 363 223 364 226 C364.57105469 225.73445312 365.14210938 225.46890625 365.73046875 225.1953125 C372.70436073 222.15740089 379.46930484 220.89707341 387 220 C386.65066406 219.55269531 386.30132812 219.10539063 385.94140625 218.64453125 C383.31101372 215.14976044 381.40792858 212.48721443 381 208 C385.53275805 209.99166641 388.13479287 213.03674942 391 217 C391.33 217.886875 391.66 218.77375 392 219.6875 C392.86136741 222.27320233 392.86136741 222.27320233 395.75 223.75 C400.02772436 226.71150148 402.61016952 230.39830513 405 235 C405 235.99 405 236.98 405 238 C401.66863403 236.57646476 399.72335243 234.8664687 397.375 232.125 C396.48941406 231.10792969 396.48941406 231.10792969 395.5859375 230.0703125 C394.08681913 228.11333531 393.01430932 226.23951463 392 224 C386.04692259 223.62052096 381.60034779 224.89305534 376.0625 227 C375.28326172 227.28617188 374.50402344 227.57234375 373.70117188 227.8671875 C371.79705683 228.56808874 369.8979805 229.28265304 368 230 C372.44393162 236.53560526 372.44393162 236.53560526 378 242 C381.39513122 241.54351177 384.5144246 240.5318858 387.75 239.4375 C392.46418832 237.9978377 397.08446174 237.1842749 402 238 C402.66 238.66 403.32 239.32 404 240 C402.80375 240.20625 401.6075 240.4125 400.375 240.625 C393.57019163 242.1057263 387.31545543 245.14322215 381 248 C383.31 250.64 385.62 253.28 388 256 C391.83984977 254.5775739 395.25399802 252.81817148 398.75 250.6875 C399.71421875 250.11386719 400.6784375 249.54023438 401.671875 248.94921875 C404.4355325 246.63535114 404.6652891 245.50888598 405 242 C405.33 241.01 405.66 240.02 406 239 C408.47342266 242.71013399 408.38503486 244.61060262 408 249 C407.27490234 249.94166016 407.27490234 249.94166016 406.53515625 250.90234375 C404.70660216 253.40090239 404.48985122 255.07270808 404.125 258.125 C402.80950837 266.25713009 399.61050876 273.80602883 393 279 C382.30553928 285.32937471 369.56708527 281.46289531 358.28613281 278.58984375 C357.53170898 278.39519531 356.77728516 278.20054687 356 278 C355.29713867 277.82339844 354.59427734 277.64679688 353.87011719 277.46484375 C342.38174806 274.53164312 331.7100334 270.11149521 320.90087891 265.28417969 C317.83392164 263.92647936 314.7530052 262.6051324 311.66796875 261.2890625 C269.88440189 243.37912065 269.88440189 243.37912065 263 230 C262.37963808 226.8292613 262.41954302 224.96536994 264.1015625 222.16796875 C268.39275335 216.71792689 273.03103983 214.35914841 279.875 213.53125 C281.2496059 213.49672301 282.62501983 213.48723176 284 213.5 C284.73984131 213.50644531 285.47968262 213.51289063 286.24194336 213.51953125 C310.39028082 214.30375244 332.31000017 231.96469399 350.85791016 245.734375 C356.08252224 249.60806833 361.34304327 253.41814533 366.6875 257.125 C367.31003662 257.56191162 367.93257324 257.99882324 368.57397461 258.44897461 C376.57708994 264.09497493 376.57708994 264.09497493 385.875 265.9375 C389.27395488 265.27976604 389.27395488 265.27976604 391 262 C390.113125 261.835 389.22625 261.67 388.3125 261.5 C383.18157241 259.17656109 381.27531072 254.83743831 379.02734375 249.8359375 C378.05568701 247.72324624 378.05568701 247.72324624 375.3125 246.5 C370.16842169 243.37544873 367.57911931 237.23454393 365 232 C365 231.34 365 230.68 365 230 C364.40574219 229.95230469 363.81148438 229.90460938 363.19921875 229.85546875 C359.89303246 228.56940339 359.31541246 226.4535484 357.8125 223.3125 C357.30332031 222.27738281 356.79414063 221.24226562 356.26953125 220.17578125 C355 217 355 217 354.47265625 213.6796875 C354.31667969 212.79539062 354.16070312 211.91109375 354 211 C351.63813861 209.73854232 351.63813861 209.73854232 349 209 C346.25283359 206.7380474 344.95038518 204.1870183 343.4375 201 C342.0778848 198.15370275 340.75584577 195.63376866 339 193 C345.12828812 194.62219392 348.25214018 199.58915886 351.8125 204.5 C354.91068323 206.6244685 357.17211066 206.01941426 360.78125 205.45703125 C362.18215952 205.16846362 363.57577714 204.8387824 364.953125 204.453125 C367.4322351 203.90431437 369.71346681 203.90412456 372.25 203.9375 C373.14203125 203.94652344 374.0340625 203.95554687 374.953125 203.96484375 C375.96632813 203.98224609 375.96632813 203.98224609 377 204 C376.50628906 203.48050781 376.01257813 202.96101562 375.50390625 202.42578125 C374.86324219 201.72839844 374.22257812 201.03101563 373.5625 200.3125 C372.92441406 199.62800781 372.28632813 198.94351563 371.62890625 198.23828125 C369.83778902 195.77710578 369.37201442 193.99183426 369 191 C367.96875 191.495 366.9375 191.99 365.875 192.5 C359.79141044 194.83899743 353.41073369 194.24310367 347 194 C347 193.67 347 193.34 347 193 C345.1746875 192.6596875 345.1746875 192.6596875 343.3125 192.3125 C338.94885276 191.49893865 336.87473444 189.31099606 334 186 C332.77927431 183.91712031 331.63395135 181.78845812 330.5625 179.625 C328.63725714 175.90341824 326.90447553 172.59089982 324 169.5625 C320.14358647 165.47984355 318.11281828 160.35519402 315.80859375 155.3046875 C313.92128716 151.8561748 311.77918042 149.74377685 309 147 C307.48828125 144.2109375 307.48828125 144.2109375 306.3125 141.375 C305.02500553 138.31353106 303.85074104 135.77611157 302 133 C302.33 132.01 302.66 131.02 303 130 C303.763125 130.804375 304.52625 131.60875 305.3125 132.4375 C308.92340165 135.88045274 311.31089288 136.12537056 316.10546875 136.09765625 C317.08837891 136.09443359 318.07128906 136.09121094 319.08398438 136.08789062 C320.10814453 136.07951172 321.13230469 136.07113281 322.1875 136.0625 C323.22326172 136.05798828 324.25902344 136.05347656 325.32617188 136.04882812 C327.88417266 136.0370401 330.44205733 136.02058515 333 136 C328.61596936 131.31054912 328.61596936 131.31054912 322.55151367 129.82641602 C321.59994385 129.80248779 320.64837402 129.77855957 319.66796875 129.75390625 C318.09885742 129.70459961 318.09885742 129.70459961 316.49804688 129.65429688 C314.30283069 129.59342657 312.1075133 129.53609603 309.91210938 129.48242188 C297.13808467 129.06681518 297.13808467 129.06681518 293.125 125.1875 C291.79806311 122.60734493 291.76138662 120.86336051 292 118 C290.783125 118.103125 289.56625 118.20625 288.3125 118.3125 C286.23828125 118.48828125 286.23828125 118.48828125 284 118 C279.93535981 114.49350911 276.67614465 110.27508706 273.375 106.0625 C272.89804687 105.46759766 272.42109375 104.87269531 271.9296875 104.25976562 C268.10085636 99.39395939 265.0228675 94.77386558 264.25 88.5 C263.1021946 83.08633517 260.50472444 80.9780816 256 78 C244.95970702 70.22358371 244.95970702 70.22358371 232 69 C218.42540222 74.01959943 204.29722106 84.30093997 197 97 C195.49218038 101.25096133 194.77875976 105.56502914 194 110 C187.36197078 143.63802922 187.36197078 143.63802922 180 151 C179.86062401 154.03270783 179.84197783 156.97422028 179.91015625 160.00390625 C179.9306254 161.87955418 179.95079728 163.75520538 179.97070312 165.63085938 C180.01368259 168.57264624 180.06159968 171.51422088 180.11645508 174.45581055 C180.58828752 201.7082014 175.45465945 224.72292258 159 247 C158.44441406 247.7734375 157.88882813 248.546875 157.31640625 249.34375 C143.56499577 267.890687 120.10603968 282.01728856 97.421875 285.55859375 C75.94889901 288.0840797 55.63968689 285.93479318 36 277 C34.22109375 276.21109375 34.22109375 276.21109375 32.40625 275.40625 C4.73942061 262.4297725 -17.09888948 236.70131496 -27.80078125 208.33984375 C-35.2098555 187.69896728 -39.47081578 166.01306739 -43.80761719 144.56494141 C-45.32074967 137.12420736 -46.98600734 129.74453333 -48.8125 122.375 C-51.51375103 111.40180303 -53.91386137 100.36970459 -56.25253296 89.31427002 C-56.6648287 87.36742233 -57.07953133 85.42108268 -57.49673462 83.47528076 C-58.08596183 80.72200475 -58.66543797 77.96685096 -59.2421875 75.2109375 C-59.42000259 74.38585693 -59.59781769 73.56077637 -59.78102112 72.71069336 C-60.74527352 68.03688964 -61.1792929 63.77237849 -61 59 C-61.66 58.67 -62.32 58.34 -63 58 C-59.375 55 -59.375 55 -56 55 C-55.505 54.505 -55.505 54.505 -55 54 C-52.32941149 53.85884839 -49.67567762 53.95752893 -47 54 C-42.98614889 69.90974792 -39.3138217 85.84292153 -36.125 101.9375 C-35.97425018 102.69761383 -35.82350037 103.45772766 -35.66818237 104.24087524 C-34.36837296 110.81467002 -33.07351929 117.38461163 -32 124 C-31.82688121 121.93803154 -31.66197049 119.87537411 -31.5 117.8125 C-31.4071875 116.66394531 -31.314375 115.51539063 -31.21875 114.33203125 C-31.1376326 112.88845829 -31.0658587 111.44434953 -31 110 C-30.95270752 109.04834961 -30.90541504 108.09669922 -30.85668945 107.11621094 C-30.62304875 98.52189818 -32.0971833 90.9304821 -34.1875 82.625 C-34.84179965 79.91720155 -35.479311 77.20572127 -36.109375 74.4921875 C-36.34991859 73.45644592 -36.34991859 73.45644592 -36.59532166 72.39978027 C-38.37753977 64.57301898 -39.69051135 56.67702535 -40.9375 48.75 C-41.04468353 48.07511536 -41.15186707 47.40023071 -41.26229858 46.70489502 C-43 35.70490288 -43 35.70490288 -43 32 C-40.03 31.67 -37.06 31.34 -34 31 C-31.70684283 37.38808068 -29.55766125 44.14374931 -30 51 C-29.34 51 -28.68 51 -28 51 C-28.04125 49.700625 -28.0825 48.40125 -28.125 47.0625 C-28.11749954 42.3297087 -27.84193469 37.41276333 -26 33 C-25.01 32.67 -24.02 32.34 -23 32 C-22.95875 31.2575 -22.9175 30.515 -22.875 29.75 C-21.63175128 25.84264687 -19.55635005 24.84930203 -16 23 C-15.01 23.33 -14.02 23.66 -13 24 C-13.66 24.66 -14.32 25.32 -15 26 C-16.13651641 36.7331446 -14.39909931 48.10332067 -13.5 58.8125 C-13.005 64.814375 -12.51 70.81625 -12 77 C-12 53.24 -12 29.48 -12 5 C-11.67 5 -11.34 5 -11 5 C-7.60041583 26.89332206 -6.8652177 48.89267805 -6 71 C-5.19601942 67.96570778 -4.87144057 65.3221453 -4.8671875 62.17578125 C-4.86525391 61.23847168 -4.86332031 60.30116211 -4.86132812 59.33544922 C-4.86583984 58.33787598 -4.87035156 57.34030273 -4.875 56.3125 C-4.87693359 55.27883301 -4.87886719 54.24516602 -4.88085938 53.18017578 C-4.91778109 46.55785611 -5.17609184 39.98955867 -5.63964844 33.38549805 C-6.03058922 27.4650281 -6.11287008 21.55754353 -6.125 15.625 C-6.12951172 14.71411621 -6.13402344 13.80323242 -6.13867188 12.86474609 C-6.13673828 12.01477051 -6.13480469 11.16479492 -6.1328125 10.2890625 C-6.13168457 9.53318848 -6.13055664 8.77731445 -6.12939453 7.99853516 C-6 6 -6 6 -5 3 C-7.97 3 -10.94 3 -14 3 C-9.12328704 -0.25114198 -5.68122659 -0.2705346 0 0 Z M-4 3 C-3.67 6.63 -3.34 10.26 -3 14 C-2.67 14 -2.34 14 -2 14 C-2 10.37 -2 6.74 -2 3 C-2.66 3 -3.32 3 -4 3 Z M199 15 C199.99 15.495 199.99 15.495 201 16 C203.00415011 15.27390143 204.97955202 14.46777904 206.9375 13.625 C213.02985276 11.17584705 218.46018077 10.14416435 225 10 C225 9.67 225 9.34 225 9 C214.79426606 7.14441201 207.72129971 9.59815479 199 15 Z M219 13 C219 13.33 219 13.66 219 14 C223.29 14.33 227.58 14.66 232 15 C228.68629 12.79086 227.6553979 12.77518447 223.8125 12.875 C222.46091797 12.90207031 222.46091797 12.90207031 221.08203125 12.9296875 C220.05142578 12.96449219 220.05142578 12.96449219 219 13 Z M244 15 C246.0272002 17.25625456 246.0272002 17.25625456 249.5 18.625 C258.833093 23.19046607 266.4209626 31.03373584 274 38 C274.33 37.34 274.66 36.68 275 36 C267.71001272 25.36876856 259.18324739 18.02342739 246.3125 15.1875 C245.1678125 15.0946875 245.1678125 15.0946875 244 15 Z M-2 18 C-2 19.65 -2 21.3 -2 23 C-1.67 23 -1.34 23 -1 23 C-1 21.35 -1 19.7 -1 18 C-1.33 18 -1.66 18 -2 18 Z M28 18 C25.44301715 21.78667689 25.96500316 25.4122334 26.375 29.75 C26.43171875 30.44738281 26.4884375 31.14476562 26.546875 31.86328125 C26.68767872 33.57639312 26.84245972 35.28834611 27 37 C27.33 37 27.66 37 28 37 C28.33774332 34.77149723 28.6700187 32.54216533 29 30.3125 C29.185625 29.07113281 29.37125 27.82976562 29.5625 26.55078125 C29.92100411 23.64113629 30.08942256 20.92299978 30 18 C29.34 18 28.68 18 28 18 Z M182.375 20.5 C181.59125 21.325 180.8075 22.15 180 23 C182.88575819 22.60196439 183.82189513 22.20990931 185.75 19.9375 C186.1625 19.298125 186.575 18.65875 187 18 C184.63721264 17.77011494 184.63721264 17.77011494 182.375 20.5 Z M194.8125 24.625 C194.07644531 25.25664062 193.34039062 25.88828125 192.58203125 26.5390625 C192.05996094 27.02117187 191.53789062 27.50328125 191 28 C191.99 28.495 191.99 28.495 193 29 C195.26058113 28.09366879 195.26058113 28.09366879 197.8125 26.75 C209.87277571 21.11244924 223.73592945 18.47748429 236.6875 22.5625 C237.45449219 22.85253906 238.22148437 23.14257812 239.01171875 23.44140625 C241.18085626 24.25139974 241.18085626 24.25139974 244 23 C238.10871986 17.78848296 230.24000996 18.81730123 222.8125 18.8125 C221.83474609 18.80025391 220.85699219 18.78800781 219.84960938 18.77539062 C206.40167419 18.67489736 206.40167419 18.67489736 194.8125 24.625 Z M210 26 C210 26.33 210 26.66 210 27 C211.08796875 27.02578125 212.1759375 27.0515625 213.296875 27.078125 C230.18849773 27.65480863 243.4588215 32.76888736 257 43 C254.49808789 35.70275634 250.33608178 32.0994849 243.78125 28.359375 C232.35292608 22.77362118 222.10701667 23.46544698 210 26 Z M3 26 C2.67 31.28 2.34 36.56 2 42 C4.42130331 38.36804504 4.21022785 36.61650652 4.125 32.3125 C4.10695313 31.13300781 4.08890625 29.95351562 4.0703125 28.73828125 C4.04710938 27.83464844 4.02390625 26.93101562 4 26 C3.67 26 3.34 26 3 26 Z M252 26 C253.39273343 29.79399798 255.1512767 33.02674716 257.3125 36.4375 C260.0087533 40.72427948 262.62591606 45.04773326 265.171875 49.42578125 C265.73092529 50.38492432 266.28997559 51.34406738 266.8659668 52.33227539 C267.97143844 54.23348299 269.07210877 56.13749302 270.16723633 58.04467773 C273.27983044 63.38240067 276.61513475 68.30820079 280.49975586 73.11621094 C282 75 282 75 284 78 C284.66 77.67 285.32 77.34 286 77 C283.98169873 70.45184097 280.78513878 64.825141 277.4375 58.875 C276.80634277 57.75295166 276.17518555 56.63090332 275.52490234 55.47485352 C269.29558766 44.54610565 262.59473501 34.32196404 253 26 C252.67 26 252.34 26 252 26 Z M20 27 C18.39248353 28.60751647 18.81559764 30.37693376 18.75390625 32.6015625 C18.72103516 33.56835938 18.68816406 34.53515625 18.65429688 35.53125 C18.5947236 37.5389961 18.53730392 39.54680769 18.48242188 41.5546875 C18.28992606 47.10437812 17.83272864 52.50971515 17.02954102 58.00634766 C15.99327441 65.44429909 15.48876047 72.85640314 15.1484375 80.359375 C15.08467926 81.66924377 15.02092102 82.97911255 14.95523071 84.32867432 C14.82192497 87.07799243 14.69294468 89.82746604 14.56738281 92.57714844 C14.40899224 96.04086552 14.2408866 99.50402734 14.06985092 102.9671402 C13.3480065 117.64877422 12.76756644 132.29799034 13 147 C13.33 147 13.66 147 14 147 C14.33 143.04 14.66 139.08 15 135 C15.07516846 136.11745605 15.15033691 137.23491211 15.2277832 138.38623047 C15.5153076 142.62515335 15.81455836 146.86318773 16.11694336 151.10107422 C16.2450274 152.91791672 16.37013991 154.73497173 16.49194336 156.55224609 C17.31930982 168.85719416 18.73451275 180.87477866 21 193 C21.33 193 21.66 193 22 193 C21.9285376 191.70626465 21.8570752 190.4125293 21.78344727 189.07958984 C21.02851231 174.58514367 20.8789593 160.13646683 20.9375 145.625 C20.94253446 143.41276145 20.94709386 141.20052177 20.95117188 138.98828125 C20.96200171 133.6588287 20.97857974 128.32941999 21 123 C20.34 123 19.68 123 19 123 C18.84380621 95.31525219 18.89576039 67.62374133 21 40 C22.31361698 42.62723396 22.21253909 44.72610561 22.31640625 47.6640625 C22.37924805 49.34628906 22.37924805 49.34628906 22.44335938 51.0625 C22.48267578 52.238125 22.52199219 53.41375 22.5625 54.625 C22.60568359 55.80835938 22.64886719 56.99171875 22.69335938 58.2109375 C22.79967426 61.14050328 22.90170642 64.07015588 23 67 C23.33 67 23.66 67 24 67 C24.66 53.8 25.32 40.6 26 27 C24.02 27 22.04 27 20 27 Z M-19 30 C-19 31.98 -19 33.96 -19 36 C-18.67 36 -18.34 36 -18 36 C-18 34.02 -18 32.04 -18 30 C-18.33 30 -18.66 30 -19 30 Z M215 31 C215 31.33 215 31.66 215 32 C217.97 32 220.94 32 224 32 C224 31.67 224 31.34 224 31 C221.03 31 218.06 31 215 31 Z M-1 32 C-1 38.93 -1 45.86 -1 53 C2.75558001 45.48883998 1.71288438 39.95571091 0 32 C-0.33 32 -0.66 32 -1 32 Z M225 32 C229 33 229 33 229 33 Z M-41 34 C-40.76055664 35.00603271 -40.52111328 36.01206543 -40.27441406 37.04858398 C-37.66974804 48.03239743 -35.18618167 59.04023606 -32.75 70.0625 C-32.38291373 71.71942347 -32.01572664 73.37632461 -31.6484375 75.03320312 C-30.76446958 79.02188048 -29.88184204 83.01085213 -29 87 C-28.67 87 -28.34 87 -28 87 C-27.64269358 77.31302595 -28.32712432 69.34942589 -31 60 C-31.71653735 57.11087126 -32.39021457 54.21220301 -33.0625 51.3125 C-33.23330078 50.58377686 -33.40410156 49.85505371 -33.58007812 49.10424805 C-34.75731809 44.07750211 -35.89945804 39.04415063 -37 34 C-38.32 34 -39.64 34 -41 34 Z M-24 34 C-27.68027557 37.68027557 -26.21840383 49.30198946 -26.21911621 54.30755615 C-26.09432832 66.67007855 -24.71842194 78.95783987 -23.5 91.25 C-23.25824737 93.7603333 -23.01735646 96.27074975 -22.77734375 98.78125 C-22.19480057 104.85515849 -21.6017281 110.92796364 -21 117 C-20.67 117 -20.34 117 -20 117 C-19.87244308 107.43512063 -20.20294821 97.97947748 -20.7979126 88.43835449 C-21.92273192 70.30058145 -22.55613378 52.16603696 -23 34 C-23.33 34 -23.66 34 -24 34 Z M167 35 C168 37 168 37 168 37 Z M160 38 C157.76656047 40.20404621 155.53906222 42.41400815 153.3125 44.625 C152.68666016 45.24246094 152.06082031 45.85992187 151.41601562 46.49609375 C147.71588744 50.17684953 144.27211954 53.93331224 141 58 C141.33 58.66 141.66 59.32 142 60 C144.42086773 57.60838068 146.83591651 55.21096558 149.25 52.8125 C149.93191406 52.13896484 150.61382812 51.46542969 151.31640625 50.77148438 C154.77531835 47.32936311 158.05636819 43.90714016 161 40 C160.67 39.34 160.34 38.68 160 38 Z M244 39 C244.33 39.66 244.66 40.32 245 41 C245.66 40.67 246.32 40.34 247 40 C246.01 39.67 245.02 39.34 244 39 Z M173 40 C168.7853009 48.45031483 164.78058837 56.85251404 161.9375 65.875 C161.72198486 66.54595703 161.50646973 67.21691406 161.28442383 67.90820312 C160.30248242 71.17769342 159.89438035 72.68314105 161 76 C166.61657373 69.0540597 169.19166829 62.03042943 171.5 53.5 C171.90049561 52.03022705 171.90049561 52.03022705 172.30908203 50.53076172 C173.84359608 45.26075289 173.84359608 45.26075289 173 40 Z M179 57 C176.21848226 60.25052157 173.57112969 63.58116815 171 67 C171.33 67.66 171.66 68.32 172 69 C172.48726562 68.45472656 172.97453125 67.90945312 173.4765625 67.34765625 C179.92736916 60.48634371 186.95072428 55.74249617 195 51 C195.82113281 50.505 196.64226562 50.01 197.48828125 49.5 C205.39481415 45.13024088 214.30766126 43.22516297 223 41 C223 40.67 223 40.34 223 40 C204.77118922 39.34376281 191.97660431 43.7216142 179 57 Z M-19 43 C-19.93959624 48.29653879 -19.98841115 53.08668517 -19.5625 58.4375 C-19.51029297 59.16904297 -19.45808594 59.90058594 -19.40429688 60.65429688 C-19.27615124 62.43668622 -19.1390184 64.2184257 -19 66 C-18.67 66 -18.34 66 -18 66 C-18 58.41 -18 50.82 -18 43 C-18.33 43 -18.66 43 -19 43 Z M250 43 C250.33 43.66 250.66 44.32 251 45 C251.66 44.67 252.32 44.34 253 44 C252.01 43.67 251.02 43.34 250 43 Z M184.4140625 64.14453125 C172.21607471 78.57289545 160.94459399 100.63019555 162 120 C163.72498126 116.88207612 164.83356365 113.63892967 165.95263672 110.26391602 C170.28729179 97.27867191 176.05424087 86.47668286 185 76 C187.49712525 72.91701075 189.91951213 69.78899828 192.3125 66.625 C200.31530586 56.44421533 209.26043652 49.23630217 222.5078125 47.18359375 C231.43638817 46.52584601 238.79197145 48.70375996 247 52 C248.99659018 52.67681023 250.99464622 53.34961499 253 54 C247.36338673 47.82784153 238.84985894 43.29507461 230.3984375 42.8984375 C212.47447956 43.65743246 196.76921641 51.18142532 184.4140625 64.14453125 Z M253 45 C253.99 46.485 253.99 46.485 255 48 C255.66 47.67 256.32 47.34 257 47 C255.68 46.34 254.36 45.68 253 45 Z M3 47 C2.48589452 48.80854964 1.98953386 50.62214526 1.5 52.4375 C1.2215625 53.44683594 0.943125 54.45617187 0.65625 55.49609375 C-0.9802711 64.23394747 0.40415116 73.05037883 1.28256226 81.81594849 C2.48499103 93.89373379 3.50090787 105.848346 3 118 C2.67 118 2.34 118 2 118 C2.43312579 133.15940282 4.7131482 148.02501427 7 163 C7.33 163 7.66 163 8 163 C7.99476318 161.73406006 7.98952637 160.46812012 7.98413086 159.16381836 C7.96596923 154.44686597 7.95452729 149.72991666 7.94506836 145.01293945 C7.94005361 142.97517374 7.9332402 140.9374116 7.92456055 138.8996582 C7.91236948 135.96304439 7.90674298 133.02647834 7.90234375 130.08984375 C7.89718246 129.18540024 7.89202118 128.28095673 7.88670349 127.34910583 C7.8862738 122.45452139 8.1694049 117.82549889 9 113 C9.66 113.99 10.32 114.98 11 116 C11.96347641 100.68584894 11.97995313 85.52146912 11.5625 70.1875 C11.50907654 68.01889707 11.45633893 65.85027714 11.40429688 63.68164062 C11.27739653 58.4541982 11.14135881 53.22707059 11 48 C10.01 48 9.02 48 8 48 C8.03029297 48.85529297 8.06058594 49.71058594 8.09179688 50.59179688 C9.60392552 93.79214897 9.60392552 93.79214897 8 97 C7.58825898 92.45109455 7.17949092 87.90193395 6.77319336 83.35253906 C6.63529045 81.81275646 6.49664763 80.2730399 6.35717773 78.73339844 C5.40033767 68.16325188 4.60542021 57.5962071 4 47 C3.67 47 3.34 47 3 47 Z M13 47 C11.59257978 49.81484045 12.33347836 51.56936113 12.9375 54.625 C13.13214844 55.62789062 13.32679687 56.63078125 13.52734375 57.6640625 C13.68332031 58.43492187 13.83929688 59.20578125 14 60 C14.33 60 14.66 60 15 60 C15 55.71 15 51.42 15 47 C14.34 47 13.68 47 13 47 Z M259 50 C260.98 52.31 262.96 54.62 265 57 C265.32539569 53.89944369 265.32539569 53.89944369 263.125 51.8125 C261.21188666 49.78368446 261.21188666 49.78368446 259 50 Z M221 51 C221 51.33 221 51.66 221 52 C222.32837891 52.22042969 222.32837891 52.22042969 223.68359375 52.4453125 C231.97857257 53.94721293 239.66393757 56.07828601 247.53881836 59.10595703 C249.34097359 59.78762431 251.1689645 60.40021444 253 61 C253.66 60.67 254.32 60.34 255 60 C244.56843695 53.27066183 233.65645755 48.07927903 221 51 Z M253 54 C253.99 55.485 253.99 55.485 255 57 C255.66 56.67 256.32 56.34 257 56 C255.68 55.34 254.36 54.68 253 54 Z M-54 56 C-53.45298368 63.44230094 -52.45801591 70.68160944 -51 78 C-50.67 78 -50.34 78 -50 78 C-50 75.69 -50 73.38 -50 71 C-47.69 80.24 -45.38 89.48 -43 99 C-42.67 99 -42.34 99 -42 99 C-42.80089686 87.51127257 -44.83382759 76.02617314 -48.37109375 65.0625 C-49.18022847 62.40894016 -49.63849848 59.74741157 -50 57 C-51.32 56.67 -52.64 56.34 -54 56 Z M200.01171875 65.4296875 C183.35157018 86.7158579 181.18100772 116.00457849 182 142 C184.49142941 138.26285589 185.29766135 134.49804029 186.3125 130.1875 C186.5297876 129.28112793 186.7470752 128.37475586 186.97094727 127.44091797 C188.86560093 119.22733829 190.15157945 110.95168459 191.4375 102.625 C193.65155153 88.64591568 196.13898882 74.13977216 207 64 C210.21312333 61.73709912 213.53635937 59.84687131 217 58 C217.99 57.34 218.98 56.68 220 56 C211.6548765 55.16548765 205.52596825 59.55793263 200.01171875 65.4296875 Z M148.37109375 58.53125 C147.73300781 59.1809375 147.09492188 59.830625 146.4375 60.5 C145.79683594 61.1496875 145.15617188 61.799375 144.49609375 62.46875 C144.00238281 62.9740625 143.50867188 63.479375 143 64 C143.99 64.495 143.99 64.495 145 65 C147.66209929 63.95335182 147.66209929 63.95335182 150 62 C150.88658466 59.40877257 150.88658466 59.40877257 151 57 C149.74882927 56.88584524 149.74882927 56.88584524 148.37109375 58.53125 Z M257 57 C257.99 58.32 258.98 59.64 260 61 C260.66 60.67 261.32 60.34 262 60 C260.62514468 58.45833358 260.62514468 58.45833358 259 57 C258.34 57 257.68 57 257 57 Z M206 71 C204.29634716 73.31510085 203.19348052 75.35358668 202 78 C202.33 78.66 202.66 79.32 203 80 C203.46148437 79.35933594 203.92296875 78.71867187 204.3984375 78.05859375 C210.31489106 70.21286186 217.12325799 63.33922837 227 61 C227 60.67 227 60.34 227 60 C218.66925727 58.95865716 211.36851763 65.3115045 206 71 Z M153 62 C154 64 154 64 154 64 Z M248 63 C250.32211565 66.19290902 252.81489311 68.77472019 255.8125 71.3125 C260.3532096 75.18995988 265.29708233 79.59416467 268 85 C268.99 85 269.98 85 271 85 C269.48616657 81.7301198 267.6023888 78.92196409 265.5 76 C262.14783009 71.34105199 262.14783009 71.34105199 261.05859375 68.828125 C259.63177072 66.36409113 258.16600338 65.82731174 255.5625 64.75 C254.78003906 64.41484375 253.99757813 64.0796875 253.19140625 63.734375 C250.91110969 62.84112575 250.91110969 62.84112575 248 63 Z M264 63 C268.51567309 69.12352638 273.22073438 75.0805035 278 81 C278.99 80.34 279.98 79.68 281 79 C280.29875 78.505 279.5975 78.01 278.875 77.5 C275.84946837 74.86910293 273.75861099 72.13140229 271.41796875 68.90625 C269.78374716 66.70927992 268.08064519 64.78341017 266 63 C265.34 63 264.68 63 264 63 Z M152 65 C153 67 153 67 153 67 Z M138 73 C119.15527814 94.22849864 116.53632901 121.9860887 114.73876953 149.17129517 C113.87774752 162.07276194 112.95119957 174.96219055 111.5 187.8125 C111.39373291 188.79259033 111.28746582 189.77268066 111.17797852 190.7824707 C108.786577 210.81329699 100.77537386 228.15293183 84.7421875 240.92578125 C79.35739608 244.24600017 73.20188114 245.34022541 67 246 C67 246.33 67 246.66 67 247 C77.87666761 247.52629037 86.51564168 244.96760152 95 238 C110.35530495 223.6333666 112.88105931 199.4237187 116.8125 179.75 C117.01409729 178.74852936 117.21569458 177.74705872 117.42340088 176.71524048 C120.42620649 161.56398177 121.68449654 147.57448014 121.13671875 132.12890625 C120.55818228 115.61914278 125.37198283 92.95540443 136.4375 80.1875 C138.29840491 78.59892264 140.22549982 77.08688249 142.1875 75.625 C145.65040884 72.39295175 146.10837996 70.5472622 147 66 C143.83960935 66 140.07169719 70.94926433 138 73 Z M151 67 C148.92809076 71.74266958 146.86557148 76.4892805 144.81103516 81.23950195 C144.1133027 82.84929563 143.41317457 84.45805343 142.71044922 86.06567383 C134.41608247 104.86326381 134.41608247 104.86326381 131 125 C138.75258376 113.37112436 142.62709763 98.66599174 147.0625 85.5 C147.31587128 84.75691589 147.56924255 84.01383179 147.83029175 83.24822998 C148.55459419 81.11664834 149.26577577 78.9811637 149.97265625 76.84375 C150.38781494 75.59787109 150.80297363 74.35199219 151.23071289 73.06835938 C152.29489395 69.98894203 152.29489395 69.98894203 151 67 Z M-18 68 C-18.22011289 80.45319239 -17.55661156 92.87559361 -17 105.3125 C-16.9033875 107.51756682 -16.80703122 109.72264488 -16.7109375 111.92773438 C-16.47691286 117.28528947 -16.23972321 122.64269702 -16 128 C-15.67 128 -15.34 128 -15 128 C-14.62790363 125.45990409 -14.27749059 122.91944574 -13.9375 120.375 C-13.83373047 119.68148437 -13.72996094 118.98796875 -13.62304688 118.2734375 C-12.05553617 106.16576863 -14.27922455 93.68410514 -15.5625 81.625 C-15.70268609 80.29168895 -15.84266089 78.95835567 -15.98242188 77.625 C-16.31955282 74.41644339 -16.65877179 71.20812299 -17 68 C-17.33 68 -17.66 68 -18 68 Z M156 69 C157 72 157 72 157 72 Z M169 70 C170 72 170 72 170 72 Z M296 70 C294.84072025 71.53158108 293.69812453 73.07579793 292.5625 74.625 C286.13982769 82.76268696 276.3331989 88.4343638 266 90 C268.3963101 94.43730525 271.42810881 97.8169939 274.875 101.4375 C278.73108338 105.51956333 282.44499674 109.6513521 286 114 C295.94853687 112.608451 303.71012603 108.93427036 311 102 C313.58848123 98.47025286 313.61074888 95.27524218 313 91 C309.09790392 83.04947924 303.26667312 76.19943414 297 70 C296.67 70 296.34 70 296 70 Z M155 72 C156 75 156 75 156 75 Z M269 73 C270.52708963 76.43595166 272.59927045 79.11912454 275 82 C275.66 81.67 276.32 81.34 277 81 C275.85760183 79.66372225 274.71098945 78.33104612 273.5625 77 C272.92441406 76.2575 272.28632813 75.515 271.62890625 74.75 C271.09136719 74.1725 270.55382812 73.595 270 73 C269.67 73 269.34 73 269 73 Z M154 75 C155 78 155 78 155 78 Z M-4 76 C-12.8611447 113.69942368 -5.85650637 148.67727149 4.01025391 185.27563477 C5.04650468 189.17499479 6.03019826 193.08365979 7 197 C7.33 197 7.66 197 8 197 C7.97447609 184.60814372 6.82555586 172.98312987 4.125 160.875 C-2.04962211 132.72593333 -2.6282628 104.69564713 -3 76 C-3.33 76 -3.66 76 -4 76 Z M153 78 C154 80 154 80 154 80 Z M140 79 C127.1755266 97.10513892 121.64283416 125.11547484 122 147 C122.33 147 122.66 147 123 147 C124.59421926 139.53769708 126.01773393 132.11678475 127.02905273 124.55273438 C128.89122254 110.81183986 132.96938982 98.66031614 138.85253906 86.10058594 C139.62392716 84.4248702 140.3192573 82.7145414 141 81 C140.67 80.34 140.34 79.68 140 79 Z M168 79 C169 81 169 81 169 81 Z M-50 81 C-49 83 -49 83 -49 83 Z M152 81 C153 83 153 83 153 83 Z M167 81 C157.34785663 98.80222409 152.5728448 116.22136525 152.91080093 136.59060478 C152.9463531 138.81108644 152.96642095 141.03126536 152.9826355 143.25196838 C153.03084145 149.55751126 153.10154007 155.86264703 153.19189453 162.16772461 C153.50463077 184.81984287 152.60545455 205.4966314 144.8125 227.0625 C144.1097263 229.0738868 143.40786266 231.08559187 142.70703125 233.09765625 C142.4025708 233.94851807 142.09811035 234.79937988 141.78442383 235.67602539 C141.07730146 237.77098269 140.49989418 239.84744509 140 242 C153.52224751 229.96239094 154.62348114 204.82679689 156 188 C156.37096991 179.79490536 156.20594071 171.58422235 156.0625 163.375 C155.64805721 136.94229697 156.02006077 110.33986329 166.92578125 85.80859375 C167.28027344 84.88175781 167.63476562 83.95492187 168 83 C167.67 82.34 167.34 81.68 167 81 Z M179 86 C180 88 180 88 180 88 Z M199 87 C199 90 199 90 199 90 Z M178 88 C165.55304335 112.64282196 162.76178106 137.59908605 160.9375 164.875 C160.61749787 169.53936143 160.29250427 174.20335815 159.96484375 178.8671875 C159.88688568 179.98502625 159.80892761 181.10286499 159.72860718 182.25457764 C159.02006543 192.19168622 158.06928899 202.09582555 157 212 C156.67 212 156.34 212 156 212 C155.8040625 212.90878906 155.608125 213.81757813 155.40625 214.75390625 C151.5174395 231.09696761 143.32882094 248.22426235 129 258 C129.33 258.66 129.66 259.32 130 260 C147.14951897 245.09337587 156.90758863 230.10563857 160.45703125 207.453125 C160.5861087 206.63167496 160.71518616 205.81022491 160.84817505 204.96388245 C162.22205377 195.9460485 163.14827022 186.8877606 164.07772827 177.81549072 C168.08392576 139.03010313 168.08392576 139.03010313 173.0859375 122.38671875 C174.18362603 118.31964203 174.56971931 114.37239177 174.9375 110.1875 C175.52336335 104.1319325 176.37599423 98.58678327 178.51171875 92.84765625 C179.23538305 90.79261612 179.23538305 90.79261612 178 88 Z M-28 89 C-27 93 -27 93 -27 93 Z M183 89 C184 91 184 91 184 91 Z M197 90 C198 92 198 92 198 92 Z M182 92 C181.34922704 94.04009755 180.70460176 96.08215669 180.0625 98.125 C179.52302734 99.83042969 179.52302734 99.83042969 178.97265625 101.5703125 C177.17082704 107.92375044 176.80623942 113.87766135 176.8125 120.4375 C176.81330566 121.3126123 176.81411133 122.18772461 176.81494141 123.08935547 C176.34994842 136.47439946 176.34994842 136.47439946 181 148 C181.495 145.03 181.495 145.03 182 142 C181.67 142 181.34 142 181 142 C180.58722095 107.51072249 180.58722095 107.51072249 183 92 C182.67 92 182.34 92 182 92 Z M-48 94 C-47 98 -47 98 -47 98 Z M-42 99 C-42 100.65 -42 102.3 -42 104 C-41.67 104 -41.34 104 -41 104 C-41 102.35 -41 100.7 -41 99 C-41.33 99 -41.66 99 -42 99 Z M-47 100 C-46 103 -46 103 -46 103 Z M152 104 C153 106 153 106 153 106 Z M-41 105 C-40 109 -40 109 -40 109 Z M-46 106 C-45 109 -45 109 -45 109 Z M145 107 C132.58623567 128.7075475 130.39868936 147.870415 131.3125 172.5625 C131.34698242 173.53687012 131.38146484 174.51124023 131.41699219 175.51513672 C131.68690475 181.29264465 132.44847115 186.7878311 133.55249023 192.46166992 C135.68292854 204.54577635 134.0067807 216.3548782 128.30078125 227.2421875 C127.65689453 228.60730469 127.65689453 228.60730469 127 230 C127.33 230.66 127.66 231.32 128 232 C135.23411009 222.90569017 138.84614894 214.43572696 137.59765625 202.7265625 C137.50629395 202.00758789 137.41493164 201.28861328 137.32080078 200.54785156 C136.77776251 196.23495398 136.3156677 191.91317845 135.84570312 187.59179688 C135.58001847 185.1726682 135.30448659 182.75459404 135.01757812 180.33789062 C133.77620511 169.47129043 133.3204837 158.76095966 135.125 147.9375 C135.25261719 147.14947998 135.38023437 146.36145996 135.51171875 145.54956055 C137.41852489 134.64662341 140.6301009 123.87478542 144.75 113.60546875 C146.37376447 110.10539564 146.37376447 110.10539564 145 107 Z M151 107 C143.09395768 127.20545516 136.78898966 145.54904891 136.8125 167.4375 C136.8117749 168.11942413 136.8110498 168.80134827 136.81030273 169.50393677 C136.81177608 182.08171037 137.61199324 194.49554625 139 207 C139.33 207 139.66 207 140 207 C141.73506407 193.92806096 142.34368791 180.90799469 142.57006836 167.73632812 C143.05417797 145.60717043 143.05417797 145.60717043 146.9375 135.4375 C150.27289085 126.3807271 150.8954357 116.53386607 152 107 C151.67 107 151.34 107 151 107 Z M307.4375 109.4375 C306.79683594 109.88996094 306.15617187 110.34242188 305.49609375 110.80859375 C305.00238281 111.20175781 304.50867188 111.59492188 304 112 C304 112.33 304 112.66 304 113 C308.29 113 312.58 113 317 113 C315.35830472 110.97945196 313.69088222 108.97956942 312 107 C310.19040962 107 308.86500247 108.41950329 307.4375 109.4375 Z M-40 109 C-39 113 -39 113 -39 113 Z M-45 111 C-44 115 -44 115 -44 115 Z M1 113 C2 115 2 115 2 115 Z M21 113 C22 115 22 115 22 115 Z M-39 114 C-38 118 -38 118 -38 118 Z M-26 115 C-28.10764775 138.80566435 -28.10764775 138.80566435 -24 162 C-23.67 162 -23.34 162 -23 162 C-20.05563021 145.84575491 -22.1750715 131.06613255 -25 115 C-25.33 115 -25.66 115 -26 115 Z M-44 116 C-43 120 -43 120 -43 120 Z M295 117 C297.08197727 122.61378695 297.08197727 122.61378695 301 127 C304.84212184 127.18014863 308.4786736 126.49928342 312.25 125.8125 C313.28125 125.64685547 314.3125 125.48121094 315.375 125.31054688 C317.92172208 124.89788357 320.46154061 124.46035715 323 124 C321.92598892 121.08482708 321.22189824 119.22189824 319 117 C316.47622345 116.72191783 316.47622345 116.72191783 313.5546875 116.8046875 C311.94013672 116.81435547 311.94013672 116.81435547 310.29296875 116.82421875 C309.16503906 116.84097656 308.03710938 116.85773438 306.875 116.875 C305.17150391 116.88853516 305.17150391 116.88853516 303.43359375 116.90234375 C300.62218701 116.92596902 297.81119702 116.95890987 295 117 Z M-38 119 C-37.33215204 126.76592937 -36.22216625 134.42889516 -35 142.125 C-32.45373902 158.26977069 -32.45373902 158.26977069 -32 163 C-32.495 163.495 -32.495 163.495 -33 164 C-33.12246094 162.8553125 -33.24492188 161.710625 -33.37109375 160.53125 C-33.92686968 156.08504254 -34.92802708 151.82943731 -36.0625 147.5 C-36.3419043 146.40945312 -36.3419043 146.40945312 -36.62695312 145.296875 C-37.08026455 143.53012276 -37.5395002 141.76489225 -38 140 C-38.33 140 -38.66 140 -39 140 C-38.45888492 148.2368418 -36.79037336 156.09444911 -34.9375 164.125 C-34.65583984 165.36765625 -34.37417969 166.6103125 -34.08398438 167.890625 C-33.39465632 170.92834184 -32.6998882 173.9647021 -32 177 C-31.67 177 -31.34 177 -31 177 C-30.67 175.35 -30.34 173.7 -30 172 C-29.68885254 172.9701001 -29.37770508 173.9402002 -29.05712891 174.93969727 C-23.10272467 193.44095382 -17.05508033 211.6338307 -8.72753906 229.23291016 C-8 231 -8 231 -8 233 C-9.32 231.68 -10.64 230.36 -12 229 C-10.53329434 233.30446226 -8.26387258 236.68988273 -5.5 240.25 C-5.05857666 240.81992676 -4.61715332 241.38985352 -4.16235352 241.97705078 C2.41292537 250.25530475 10.58532635 256.67883211 19 263 C19.66 262.67 20.32 262.34 21 262 C20.57589844 261.61070312 20.15179688 261.22140625 19.71484375 260.8203125 C13.9695661 255.34020151 9.26393492 249.18944658 5.484375 242.1953125 C4.99453125 241.47085938 4.5046875 240.74640625 4 240 C3.01 240 2.02 240 1 240 C0.88011719 239.27143799 0.76023438 238.54287598 0.63671875 237.79223633 C0.00097441 235.00427312 -0.89667888 232.86695881 -2.1875 230.32421875 C-2.63448242 229.42638672 -3.08146484 228.52855469 -3.54199219 227.60351562 C-4.02313477 226.64123047 -4.50427734 225.67894531 -5 224.6875 C-10.8327427 212.73285058 -15.67784111 200.57450592 -20 188 C-20.31420898 187.08879395 -20.62841797 186.17758789 -20.95214844 185.23876953 C-26.42778398 169.06022416 -29.82303448 152.50299861 -33.20898438 135.79589844 C-34.38019509 130.17553295 -35.67540919 124.58595457 -37 119 C-37.33 119 -37.66 119 -38 119 Z M-20 120 C-20 121.65 -20 123.3 -20 125 C-19.67 125 -19.34 125 -19 125 C-19 123.35 -19 121.7 -19 120 C-19.33 120 -19.66 120 -20 120 Z M161 120 C161 121.65 161 123.3 161 125 C161.33 125 161.66 125 162 125 C162 123.35 162 121.7 162 120 C161.67 120 161.34 120 161 120 Z M-43 121 C-42 125 -42 125 -42 125 Z M-42 126 C-41 130 -41 130 -41 130 Z M130 126 C131 128 131 128 131 128 Z M173 126 C170.83469182 142.97674396 168.80990573 159.95584684 167.25 177 C167.18533539 177.69237762 167.12067078 178.38475525 167.05404663 179.09811401 C166.37440164 186.4231524 165.83864717 193.64231093 166 201 C167.86571477 197.71683624 168.58419057 194.65408255 169.25390625 190.94921875 C169.57584961 189.18868164 169.57584961 189.18868164 169.90429688 187.39257812 C170.23010742 185.55856445 170.23010742 185.55856445 170.5625 183.6875 C170.78357422 182.47642578 171.00464844 181.26535156 171.23242188 180.01757812 C172.25795555 174.35700402 173.25013311 168.70404366 174 163 C174.94063793 185.15724892 172.09151013 210.16332478 162.625 230.5 C160.57467627 233.86789996 160.57467627 233.86789996 162 237 C180.01699181 203.24344512 178.41766268 163.17341186 174 126 C173.67 126 173.34 126 173 126 Z M-12 127 C-12.4471047 148.66394219 -12.59751601 169.70130336 -8 191 C-7.78037598 192.02754395 -7.56075195 193.05508789 -7.33447266 194.11376953 C-1.12557254 225.78416631 -1.12557254 225.78416631 17 251 C15.66094335 247.46918554 14.06254204 244.24587646 12.25 240.9375 C2.62419875 221.75633019 -0.49091517 199.59525673 -2.78369141 178.50268555 C-3.72494827 170.28023349 -5.34426317 162.34640086 -7.22314453 154.29345703 C-9.28380147 145.25851222 -10.27858436 136.22765976 -11 127 C-11.33 127 -11.66 127 -12 127 Z M160 127 C161 130 161 130 161 130 Z M-41 131 C-40.67 133.97 -40.34 136.94 -40 140 C-39.67 140 -39.34 140 -39 140 C-39.33 137.03 -39.66 134.06 -40 131 C-40.33 131 -40.66 131 -41 131 Z M-31 133 C-30 136 -30 136 -30 136 Z M147 137 C145.07943212 147.73923823 144.78062259 158.00809064 144.9375 168.875 C145.12450569 184.23548495 145.26990636 199.43423707 141.8125 214.5 C141.49128174 215.9535791 141.49128174 215.9535791 141.16357422 217.43652344 C139.58543301 224.26122272 137.52349343 230.76619376 134.79223633 237.21679688 C133.13905283 241.0003352 133.13905283 241.0003352 134 245 C145.26891484 225.33934007 150.20177795 201.23598307 150.1875 178.75 C150.18814453 177.68402588 150.18878906 176.61805176 150.18945312 175.51977539 C150.10748343 162.64214994 149.08337582 149.82619007 148 137 C147.67 137 147.34 137 147 137 Z M-17 138 C-17 141.96 -17 145.92 -17 150 C-16.67 150 -16.34 150 -16 150 C-16 146.04 -16 142.08 -16 138 C-16.33 138 -16.66 138 -17 138 Z M309 140 C310.44071183 143.0278707 311.74105116 144.94696573 314.3125 147.125 C314.88613281 147.62257812 315.45976562 148.12015625 316.05078125 148.6328125 C319.90375177 151.33529683 323.4123272 152.25260948 328.08203125 152.1953125 C329.01337891 152.18886719 329.94472656 152.18242187 330.90429688 152.17578125 C331.86400391 152.15902344 332.82371094 152.14226562 333.8125 152.125 C334.79154297 152.11597656 335.77058594 152.10695313 336.77929688 152.09765625 C339.18645061 152.07417182 341.59309743 152.0413284 344 152 C341.2023044 147.15282972 338.50256534 142.83418845 333 141 C331.15533558 140.85110253 329.30642725 140.7520899 327.45703125 140.68359375 C326.38388672 140.64169922 325.31074219 140.59980469 324.20507812 140.55664062 C323.08552734 140.51732422 321.96597656 140.47800781 320.8125 140.4375 C319.68134766 140.39431641 318.55019531 140.35113281 317.38476562 140.30664062 C314.58996646 140.20050901 311.79507838 140.09845615 309 140 Z M318 155 C319.46582429 156.96909063 320.93619748 158.93445206 322.4140625 160.89453125 C323.65968968 162.54820871 324.89441867 164.21009585 326.125 165.875 C328.08712417 168.09874073 329.27272896 168.92402057 332 170 C334.41882403 170.18409077 334.41882403 170.18409077 336.984375 169.9765625 C338.38623047 169.89921875 338.38623047 169.89921875 339.81640625 169.8203125 C341.26853516 169.72363281 341.26853516 169.72363281 342.75 169.625 C344.22533203 169.53992188 344.22533203 169.53992188 345.73046875 169.453125 C348.154411 169.31192448 350.57727459 169.16054205 353 169 C352.04661031 167.03925516 351.0871246 165.08147348 350.125 163.125 C349.59132813 162.03445313 349.05765625 160.94390625 348.5078125 159.8203125 C347.15464063 156.96117453 347.15464063 156.96117453 345 155 C343.11655011 154.98027402 343.11655011 154.98027402 341 155.375 C333.21780654 156.42428451 325.75200359 156.14844498 318 155 Z M-20 156 C-20.89114004 171.39691956 -17.30485586 185.60916761 -12 200 C-10.7021843 196.32331751 -11.293202 193.66143605 -12.14453125 189.90625 C-12.40943359 188.71 -12.67433594 187.51375 -12.94726562 186.28125 C-13.23279297 185.0334375 -13.51832031 183.785625 -13.8125 182.5 C-15.79445966 173.69543566 -17.62728136 164.92215624 -19 156 C-19.33 156 -19.66 156 -20 156 Z M12 148 C11.82979517 152.72791195 11.66957321 157.45603001 11.51782227 162.18457031 C11.46509616 163.78654645 11.40984021 165.38844173 11.35180664 166.99023438 C10.98802656 177.08750418 11.0240767 186.92733179 12 197 C12.99 196.505 12.99 196.505 14 196 C14.40089844 197.20914063 14.80179687 198.41828125 15.21484375 199.6640625 C21.19868028 217.13708021 30.23848468 233.9930119 45.8671875 244.74609375 C46.90101563 245.48988281 47.93484375 246.23367188 49 247 C49 247.66 49 248.32 49 249 C50.58199631 249.64910154 52.16565724 250.29414694 53.75 250.9375 C55.07257813 251.47697266 55.07257813 251.47697266 56.421875 252.02734375 C67.7752981 256.31068065 81.1152541 254.90944029 92 250 C92.78632813 249.649375 93.57265625 249.29875 94.3828125 248.9375 C105.62805493 243.29528777 113.65997248 234.52072476 118.125 222.875 C124.76704359 201.63121686 124.19781482 178.00918144 124 156 C123.67 156 123.34 156 123 156 C122.90865784 156.56581787 122.81731567 157.13163574 122.72320557 157.71459961 C121.75759913 163.6873921 120.78230371 169.65854861 119.80175781 175.62890625 C119.43867213 177.84726337 119.07793071 180.06600567 118.71972656 182.28515625 C113.09027106 217.13117135 113.09027106 217.13117135 107.5625 227.625 C107.00691406 228.71039063 106.45132813 229.79578125 105.87890625 230.9140625 C100.68323034 239.4475011 93.34631706 245.6936889 83.640625 248.52734375 C73.8004507 250.28867672 63.86769384 249.85645915 55 245 C52.08277962 242.8934149 49.57827226 240.50138541 47 238 C46.25878906 237.3915625 45.51757812 236.783125 44.75390625 236.15625 C38.74245867 231.209224 34.85208003 225.73804353 31 219 C29.94729537 221.63106761 29.94729537 221.63106761 30 223 C24.81899096 213.90808364 20.4802291 205.24758071 18 195 C17.58814453 193.37771484 17.58814453 193.37771484 17.16796875 191.72265625 C14.01622427 177.42336234 13.76502826 162.58086171 13 148 C12.67 148 12.34 148 12 148 Z M128 163 C127.91959473 164.03705078 127.83918945 165.07410156 127.75634766 166.14257812 C127.45069803 170.07175203 127.14007957 174.00052129 126.828125 177.92919922 C126.69497984 179.61431764 126.56309837 181.29953649 126.43261719 182.98486328 C125.57600187 194.03520083 124.48451772 205.01571226 123 216 C128.83095368 210.16904632 131.10550829 196.18184872 131.109375 187.89453125 C131.06458549 182.70641258 130.55967059 177.59176359 130 172.4375 C129.90460938 171.52419922 129.80921875 170.61089844 129.7109375 169.66992188 C129.47808125 167.44614468 129.24104145 165.22290224 129 163 C128.67 163 128.34 163 128 163 Z M330 174 C335.86149754 183.02358619 335.86149754 183.02358619 344.875 187.8125 C351.56314564 188.2212831 358.30269657 188.07941467 365 188 C364.60167969 187.22076172 364.60167969 187.22076172 364.1953125 186.42578125 C361.12968592 180.37284701 361.12968592 180.37284701 360 177.125 C358.71219527 174.38841495 357.8028092 174.06525687 355 173 C346.69854203 172.31974164 338.26578712 173.16597463 330 174 Z M-31 178 C-30 182 -30 182 -30 182 Z M-1 183 C0 186 0 186 0 186 Z M-30 184 C-29 186 -29 186 -29 186 Z M0 186 C0.58755218 192.26930675 1.57703577 198.21213323 3.125 204.3125 C3.34164307 205.1677124 3.55828613 206.0229248 3.78149414 206.90405273 C11.18785557 235.33082009 11.18785557 235.33082009 30.34375 256.5625 C41.25604965 262.51466344 52.78075327 263.49463218 65 263 C62.38268 260.38268 60.90033176 260.65527506 57.25 260.3125 C43.36427053 258.37065548 32.51621869 250.69571002 23.96875 239.78125 C20.87851648 235.41568202 18.3961869 230.77422087 16 226 C15.34 226 14.68 226 14 226 C13.64695801 224.93040039 13.29391602 223.86080078 12.93017578 222.75878906 C11.61748271 218.78446448 10.30079654 214.81147238 8.98291016 210.83886719 C8.41346262 209.12047741 7.84509344 207.40172987 7.27783203 205.68261719 C6.46150539 203.20933332 5.64128839 200.7373689 4.8203125 198.265625 C4.56814972 197.49881409 4.31598694 196.73200317 4.05618286 195.94195557 C2.90987287 192.50230437 1.76385319 189.17639952 0 186 Z M354 191 C354 191.33 354 191.66 354 192 C355.65 192 357.3 192 359 192 C359 191.67 359 191.34 359 191 C357.35 191 355.7 191 354 191 Z M22 194 C23 197 23 197 23 197 Z M132 194 C132 195.65 132 197.3 132 199 C132.33 199 132.66 199 133 199 C133 197.35 133 195.7 133 194 C132.67 194 132.34 194 132 194 Z M23 199 C24 201 24 201 24 201 Z M-11 200 C-10 202 -10 202 -10 202 Z M131 200 C131 201.98 131 203.96 131 206 C131.33 206 131.66 206 132 206 C132 204.02 132 202.04 132 200 C131.67 200 131.34 200 131 200 Z M165 201 C166 204 166 204 166 204 Z M-10 203 C-9 205 -9 205 -9 205 Z M28 203 C29 205 29 205 29 205 Z M29 205 C30.17689614 212.97674051 33.32345786 218.48835905 38 225 C38.59941406 225.83789062 39.19882813 226.67578125 39.81640625 227.5390625 C42.41059696 230.46274791 45.2870175 232.54786475 48.5625 234.625 C49.18020264 235.01671387 49.79790527 235.40842773 50.43432617 235.81201172 C58.85658378 240.95635316 66.23861801 242.76024921 76 241 C76 240.67 76 240.34 76 240 C74.98292969 239.96132813 74.98292969 239.96132813 73.9453125 239.921875 C60.02472449 239.07352892 50.89404742 233.2967144 41.375 223.375 C36.47193336 217.79119124 33.24049033 211.64769398 30 205 C29.67 205 29.34 205 29 205 Z M130 206 C131 210 131 210 131 210 Z M-22 210 C-21 212 -21 212 -21 212 Z M129 210 C128.3012307 211.76641683 127.61633417 213.53832664 126.9375 215.3125 C126.55464844 216.29863281 126.17179688 217.28476562 125.77734375 218.30078125 C124.70610152 221.06233263 124.70610152 221.06233263 126 224 C126.70133599 222.42274653 127.385583 220.83788667 128.0625 219.25 C128.44535156 218.36828125 128.82820312 217.4865625 129.22265625 216.578125 C130.04600008 213.84743691 129.9773992 212.63098653 129 210 Z M15 211 C16 213 16 213 16 213 Z M-21 212 C-20 214 -20 214 -20 214 Z M-20 214 C-19 216 -19 216 -19 216 Z M16 214 C17 216 17 216 17 216 Z M28 215 C29 217 29 217 29 217 Z M-19 216 C-18.50168276 219.68754757 -17.89932357 221.60490662 -15 224 C-16.26974972 219.58477891 -16.26974972 219.58477891 -19 216 Z M17 216 C18 219 18 219 18 219 Z M122 216 C123 219 123 219 123 219 Z M277 218 C277 218.33 277 218.66 277 219 C278.47146484 219.32871094 278.47146484 219.32871094 279.97265625 219.6640625 C303.80540396 225.18065402 322.76936141 236.15733772 342 251 C342.69673828 251.53689453 343.39347656 252.07378906 344.11132812 252.62695312 C354.44123849 260.61420542 354.44123849 260.61420542 358.95703125 264.62890625 C364.41419696 268.88115219 371.70956506 271.85656976 378.6875 272.08984375 C381.05319919 271.8372881 381.05319919 271.8372881 384 271 C383.67 270.34 383.34 269.68 383 269 C381.80375 268.649375 380.6075 268.29875 379.375 267.9375 C367.8254813 264.24529166 357.79150244 256.24628554 348.12207031 249.16186523 C314.93000686 222.64760873 314.93000686 222.64760873 277 218 Z M29 217 C30 219 30 219 30 219 Z M18 219 C19.66803214 229.55788523 26.66941493 237.65686256 34 245 C34.6496875 245.66128906 35.299375 246.32257813 35.96875 247.00390625 C44.19016791 254.80414497 53.78303564 258.21994048 65 258 C62.16278505 256.51971394 59.3145337 255.35219595 56.3125 254.25 C48.67425235 251.21948582 42.65253581 246.94240944 37 241 C35.71131721 239.93388289 34.41934552 238.87173496 33.125 237.8125 C29.18737372 234.41722602 26.41490437 230.62368939 23.54296875 226.3125 C21.83480003 223.75240916 19.96973208 221.36367849 18 219 Z M271 219 C267.19323792 222.63468346 267.19323792 222.63468346 265.75 227.4375 C272.46095594 241.19495969 292.76383795 248.11491572 306 254 C307.65588135 254.7437085 307.65588135 254.7437085 309.34521484 255.50244141 C345.32162593 272.88483947 345.32162593 272.88483947 384 279 C381.35329568 276.35329568 378.39990577 275.66659078 374.9140625 274.56640625 C373.42486631 274.08364519 371.93577577 273.60055817 370.44677734 273.1171875 C369.66083191 272.86420898 368.87488647 272.61123047 368.06512451 272.35058594 C285.04122231 245.53639285 285.04122231 245.53639285 274 229 C273.08310911 225.73798433 273 222.38866429 273 219 C272.34 219 271.68 219 271 219 Z M275 222 C273.68317003 224.89799824 273.68317003 224.89799824 274.875 227.3125 C280.15949724 233.99583474 288.70159593 237.56205062 296.3125 241 C297.30999268 241.4542334 298.30748535 241.9084668 299.33520508 242.37646484 C309.16255749 246.76751894 319.15961643 250.71898156 329.1875 254.625 C330.38447006 255.09244629 330.38447006 255.09244629 331.60562134 255.56933594 C333.89509393 256.46075251 336.1871061 257.34520806 338.48046875 258.2265625 C339.50876297 258.62580429 339.50876297 258.62580429 340.55783081 259.03311157 C344.01351198 260.34892053 347.34567582 261.41196804 351 262 C348.18127715 259.01084274 345.31695184 256.73579778 341.875 254.5 C340.81152344 253.80648437 339.74804688 253.11296875 338.65234375 252.3984375 C338.0682373 252.0178418 337.48413086 251.63724609 336.88232422 251.24511719 C334.86331028 249.90958268 332.8704 248.54027179 330.87890625 247.1640625 C304.97242839 228.85882002 304.97242839 228.85882002 275 222 Z M-15 224 C-14.34 225.65 -13.68 227.3 -13 229 C-12.67 228.34 -12.34 227.68 -12 227 C-12.99 226.01 -13.98 225.02 -15 224 Z M124 224 C125 226 125 226 125 226 Z M123 226 C122.34 227.65 121.68 229.3 121 231 C121.99 230.01 122.98 229.02 124 228 C123.67 227.34 123.34 226.68 123 226 Z M120 231 C120 234 120 234 120 234 Z M118 234 C117.34 235.32 116.68 236.64 116 238 C116.99 237.34 117.98 236.68 119 236 C118.67 235.34 118.34 234.68 118 234 Z M126 237 C124.515 238.98 124.515 238.98 123 241 C124.32 240.34 125.64 239.68 127 239 C126.67 238.34 126.34 237.68 126 237 Z M160 237 C161 239 161 239 161 239 Z M115 238 C113.39490066 239.43645851 111.79095576 240.87420706 110.1875 242.3125 C109.29417969 243.11300781 108.40085938 243.91351563 107.48046875 244.73828125 C105.60073214 246.45224581 103.77407253 248.17877604 102 250 C107.22926405 248.52926948 111.41637993 244.99266851 115 241 C115 240.01 115 239.02 115 238 Z M158 240 C159 242 159 242 159 242 Z M117.8125 243.9375 C98.96702466 260.71167084 74.12928936 267.28817753 49.36425781 266.16845703 C41.30004391 265.5938693 34.64490366 263.28421293 27.83984375 258.98828125 C25.90760349 257.76339636 25.90760349 257.76339636 23 258 C34.0251468 268.30611549 47.16428139 272.75407194 62.2421875 272.33984375 C79.72625647 270.75864417 94.88615914 263.87867597 109.1875 253.9375 C109.88230469 253.45539063 110.57710938 252.97328125 111.29296875 252.4765625 C115.8852493 249.14895296 119.50187304 245.45762261 123 241 C120.25671686 241 119.76307081 242.03859994 117.8125 243.9375 Z M139 242 C139 245 139 245 139 245 Z M150 243 C151 245 151 245 151 245 Z M123 244 C122.37996094 244.60585938 121.75992188 245.21171875 121.12109375 245.8359375 C103.18119792 262.80963807 81.24280685 274.88693032 56 275 C51.64878971 274.80160285 47.33024639 274.46755152 43 274 C47.40979802 278.40979802 54.90590883 279.7673232 60.9375 280.4375 C62.29622961 280.3432208 63.65149671 280.19124228 65 280 C66.34191406 279.81824219 66.34191406 279.81824219 67.7109375 279.6328125 C85.955755 276.277972 111.82773339 263.72282142 122.9375 248.3125 C123.288125 247.549375 123.63875 246.78625 124 246 C123.505 245.01 123.505 245.01 123 244 Z M132 245 C132 248 132 248 132 248 Z M148 246 C146.14985872 248.24808499 144.34592074 250.51240845 142.5625 252.8125 C142.05912109 253.45509766 141.55574219 254.09769531 141.03710938 254.75976562 C138.92746852 257.46335583 136.90404592 260.14393112 135 263 C138.75197825 261.4941612 140.64319773 259.33457626 143.125 256.1875 C143.80820313 255.33542969 144.49140625 254.48335937 145.1953125 253.60546875 C146.91859644 251.11752419 148.00829653 248.84731357 149 246 C148.67 246 148.34 246 148 246 Z M130 248 C131 250 131 250 131 250 Z M400 255 C397.71271266 256.83883881 397.71271266 256.83883881 397.875 259.625 C397.91625 260.40875 397.9575 261.1925 398 262 C399.74627478 259.38058783 400.38722388 257.96175123 401 255 C400.67 255 400.34 255 400 255 Z M126 262 C125.34 263.32 124.68 264.64 124 266 C125.32 265.34 126.64 264.68 128 264 C127.34 263.34 126.68 262.68 126 262 Z M397 262 C398 264 398 264 398 264 Z M21 263 C21.33 263.66 21.66 264.32 22 265 C22.66 264.67 23.32 264.34 24 264 C23.01 263.67 22.02 263.34 21 263 Z M105 267 C104.67 267.66 104.34 268.32 104 269 C104.99 268.67 105.98 268.34 107 268 C106.34 267.67 105.68 267.34 105 267 Z M102 269 C99.37612865 270.39092892 99.37612865 270.39092892 97 272 C97.99 272.495 97.99 272.495 99 273 C101.62387135 271.60907108 101.62387135 271.60907108 104 270 C103.34 269.67 102.68 269.34 102 269 Z M79.75 281.5 C78.5125 281.665 77.275 281.83 76 282 C76 282.33 76 282.66 76 283 C77.4370809 283.05422947 78.87475462 283.09289723 80.3125 283.125 C81.51326172 283.15980469 81.51326172 283.15980469 82.73828125 283.1953125 C85.28388576 283.15817322 85.28388576 283.15817322 88 281 C85.11564062 281 82.57820832 281.12290556 79.75 281.5 Z " fill="red" filter="url(#glow)" transform="translate(82,105)"/>
<path d="M0 0 C0.66 0.33 1.32 0.66 2 1 C-4.23979019 7.20493102 -10.63827931 11.63022616 -19.625 12.25 C-20.40875 12.1675 -21.1925 12.085 -22 12 C-19.75748687 10.50499124 -17.70952089 9.30163094 -15.3125 8.125 C-14.26449219 7.60679687 -14.26449219 7.60679687 -13.1953125 7.078125 C-11.73177083 6.359375 -10.26822917 5.640625 -8.8046875 4.921875 C-7.75667969 4.40367187 -7.75667969 4.40367187 -6.6875 3.875 C-5.73423828 3.40707031 -5.73423828 3.40707031 -4.76171875 2.9296875 C-2.74477488 1.90369691 -2.74477488 1.90369691 0 0 Z " fill="red" filter="url(#glow)" transform="translate(373,186)"/>
<path d="M0 0 C1.47668858 0.0133035 2.95331108 0.03716415 4.4296875 0.0703125 C5.18378906 0.07933594 5.93789063 0.08835937 6.71484375 0.09765625 C8.57826004 0.1212438 10.44151343 0.15711531 12.3046875 0.1953125 C12.3046875 0.8553125 12.3046875 1.5153125 12.3046875 2.1953125 C6.3646875 2.1953125 0.4246875 2.1953125 -5.6953125 2.1953125 C-3.6953125 0.1953125 -3.6953125 0.1953125 0 0 Z " fill="red" filter="url(#glow)" transform="translate(425.6953125,280.8046875)"/>
<path d="M0 0 C-4.99296295 2.9445679 -9.33557626 3.63495936 -15 4 C-12.83963386 1.55023901 -11.23682048 0.50550046 -8.0625 -0.25 C-7.39347656 -0.42015625 -6.72445313 -0.5903125 -6.03515625 -0.765625 C-3.76732882 -1.02679515 -2.16439531 -0.67788667 0 0 Z " fill="red" filter="url(#glow)" transform="translate(471,332)"/>
<path d="M0 0 C-2.92654527 0.97551509 -4.94654996 1.16478088 -8 1.1875 C-9.299375 1.20876953 -9.299375 1.20876953 -10.625 1.23046875 C-13 1 -13 1 -16 -1 C-10.50236935 -2.33275895 -4.96478604 -3.17746307 0 0 Z " fill="red" filter="url(#glow)" transform="translate(414,249)"/>
<path d="M0 0 C4.95 0 9.9 0 15 0 C12 3 12 3 9.58984375 3.328125 C8.71457031 3.30234375 7.83929688 3.2765625 6.9375 3.25 C6.05964844 3.23453125 5.18179687 3.2190625 4.27734375 3.203125 C2 3 2 3 0 2 C0 1.34 0 0.68 0 0 Z " fill="red" filter="url(#glow)" transform="translate(409,263)"/>
<path d="M0 0 C0.66 0.33 1.32 0.66 2 1 C1.68031467 4.51653861 1.37757864 6.53431968 -0.875 9.3125 C-3 11 -3 11 -6 12 C-4 8 -2 4 0 0 Z " fill="red" filter="url(#glow)" transform="translate(392,196)"/>
<path d="M0 0 C-3.38583802 3.13107836 -5.71109462 3.33550778 -10.25 3.1875 C-11.86648438 3.14689453 -11.86648438 3.14689453 -13.515625 3.10546875 C-14.33546875 3.07066406 -15.1553125 3.03585937 -16 3 C-10.60634314 0.2066535 -6.07347984 -0.11908784 0 0 Z " fill="red" filter="url(#glow)" transform="translate(482,350)"/>
<path d="M0 0 C1.74965358 -0.05429959 3.49979787 -0.09292823 5.25 -0.125 C6.22453125 -0.14820313 7.1990625 -0.17140625 8.203125 -0.1953125 C11.0196498 0.00137219 12.60949036 0.55431084 15 2 C14.67 2.33 14.34 2.66 14 3 C12.01845715 2.96206177 10.03814636 2.84489394 8.0625 2.6875 C6.98097656 2.60886719 5.89945312 2.53023437 4.78515625 2.44921875 C2 2 2 2 0 0 Z " fill="red" filter="url(#glow)" transform="translate(383,223)"/>
<path d="M0 0 C0.33 0 0.66 0 1 0 C1.66 3.96 2.32 7.92 3 12 C0 11 0 11 -1.25 9.3125 C-2.24580571 6.24209906 -1.75782092 4.10017651 -1 1 C-0.67 0.67 -0.34 0.34 0 0 Z " fill="red" filter="url(#glow)" transform="translate(352,326)"/>
<path d="M0 0 C0.99773437 0.02320313 1.99546875 0.04640625 3.0234375 0.0703125 C4.52777344 0.09738281 4.52777344 0.09738281 6.0625 0.125 C6.83335937 0.14820313 7.60421875 0.17140625 8.3984375 0.1953125 C8.0684375 0.8553125 7.7384375 1.5153125 7.3984375 2.1953125 C3.4384375 2.1953125 -0.5215625 2.1953125 -4.6015625 2.1953125 C-2.6015625 0.1953125 -2.6015625 0.1953125 0 0 Z " fill="red" filter="url(#glow)" transform="translate(396.6015625,234.8046875)"/>
<path d="M0 0 C0.66 0 1.32 0 2 0 C1.67 1.32 1.34 2.64 1 4 C0.34 4 -0.32 4 -1 4 C-0.67 2.68 -0.34 1.36 0 0 Z " fill="red" filter="url(#glow)" transform="translate(377,180)"/>
</svg>
